<mxfile host="app.diagrams.net" modified="2023-04-28T17:03:05.561Z" agent="Mozilla/5.0 (Windows NT 10.0; Win64; x64) AppleWebKit/537.36 (KHTML, like Gecko) Chrome/112.0.0.0 Safari/537.36" etag="EiaO2rtEx1eLZNFBrxs4" version="21.2.3" type="device">
  <diagram name="Страница 1" id="UQGh7bQs8FkI7TK_E3Sm">
    <mxGraphModel dx="2147" dy="716" grid="1" gridSize="10" guides="1" tooltips="1" connect="1" arrows="1" fold="1" page="1" pageScale="1" pageWidth="827" pageHeight="1169" math="0" shadow="0">
      <root>
        <mxCell id="0" />
        <mxCell id="1" parent="0" />
        <mxCell id="1YtH2B_9oA-8Mvq2Wx-H-1" value="Actor" style="shape=umlActor;verticalLabelPosition=bottom;verticalAlign=top;html=1;outlineConnect=0;" parent="1" vertex="1">
          <mxGeometry x="120" y="50" width="30" height="60" as="geometry" />
        </mxCell>
        <mxCell id="1YtH2B_9oA-8Mvq2Wx-H-2" value="" style="endArrow=none;html=1;rounded=0;" parent="1" edge="1">
          <mxGeometry width="50" height="50" relative="1" as="geometry">
            <mxPoint x="140" y="730" as="sourcePoint" />
            <mxPoint x="140" y="140" as="targetPoint" />
          </mxGeometry>
        </mxCell>
        <mxCell id="1YtH2B_9oA-8Mvq2Wx-H-4" value="" style="endArrow=classic;html=1;rounded=0;entryX=0;entryY=0;entryDx=0;entryDy=0;" parent="1" target="1YtH2B_9oA-8Mvq2Wx-H-6" edge="1">
          <mxGeometry width="50" height="50" relative="1" as="geometry">
            <mxPoint x="-130" y="270" as="sourcePoint" />
            <mxPoint x="-60" y="270" as="targetPoint" />
          </mxGeometry>
        </mxCell>
        <mxCell id="1YtH2B_9oA-8Mvq2Wx-H-6" value="" style="rounded=0;whiteSpace=wrap;html=1;" parent="1" vertex="1">
          <mxGeometry x="-60" y="270" width="10" height="60" as="geometry" />
        </mxCell>
        <mxCell id="1YtH2B_9oA-8Mvq2Wx-H-7" value="" style="endArrow=classic;html=1;rounded=0;exitX=0.25;exitY=1;exitDx=0;exitDy=0;dashed=1;" parent="1" source="1YtH2B_9oA-8Mvq2Wx-H-6" edge="1">
          <mxGeometry width="50" height="50" relative="1" as="geometry">
            <mxPoint x="-190" y="430" as="sourcePoint" />
            <mxPoint x="-130" y="330" as="targetPoint" />
          </mxGeometry>
        </mxCell>
        <mxCell id="1YtH2B_9oA-8Mvq2Wx-H-17" value="" style="endArrow=classic;html=1;rounded=0;entryX=0;entryY=0;entryDx=0;entryDy=0;" parent="1" target="1YtH2B_9oA-8Mvq2Wx-H-18" edge="1">
          <mxGeometry width="50" height="50" relative="1" as="geometry">
            <mxPoint x="140" y="160" as="sourcePoint" />
            <mxPoint x="210" y="160" as="targetPoint" />
          </mxGeometry>
        </mxCell>
        <mxCell id="1YtH2B_9oA-8Mvq2Wx-H-18" value="" style="rounded=0;whiteSpace=wrap;html=1;" parent="1" vertex="1">
          <mxGeometry x="210" y="160" width="10" height="60" as="geometry" />
        </mxCell>
        <mxCell id="1YtH2B_9oA-8Mvq2Wx-H-19" value="" style="endArrow=classic;html=1;rounded=0;exitX=0.25;exitY=1;exitDx=0;exitDy=0;dashed=1;" parent="1" source="1YtH2B_9oA-8Mvq2Wx-H-18" edge="1">
          <mxGeometry width="50" height="50" relative="1" as="geometry">
            <mxPoint x="80" y="320" as="sourcePoint" />
            <mxPoint x="140" y="220" as="targetPoint" />
          </mxGeometry>
        </mxCell>
        <mxCell id="1YtH2B_9oA-8Mvq2Wx-H-20" value="Вход" style="rounded=0;whiteSpace=wrap;html=1;" parent="1" vertex="1">
          <mxGeometry x="170" y="60" width="90" height="60" as="geometry" />
        </mxCell>
        <mxCell id="1YtH2B_9oA-8Mvq2Wx-H-21" value="" style="endArrow=none;html=1;rounded=0;" parent="1" edge="1">
          <mxGeometry width="50" height="50" relative="1" as="geometry">
            <mxPoint x="214.44" y="710" as="sourcePoint" />
            <mxPoint x="214.44" y="120" as="targetPoint" />
          </mxGeometry>
        </mxCell>
        <mxCell id="1YtH2B_9oA-8Mvq2Wx-H-24" value="Запрос на вход" style="text;html=1;strokeColor=none;fillColor=none;align=center;verticalAlign=middle;whiteSpace=wrap;rounded=0;fontSize=10;" parent="1" vertex="1">
          <mxGeometry x="140" y="140" width="60" height="30" as="geometry" />
        </mxCell>
        <mxCell id="1YtH2B_9oA-8Mvq2Wx-H-25" value="&lt;br&gt;Спиок&amp;nbsp; Рецептов \&lt;br&gt;Спиок&amp;nbsp; Тренировок" style="rounded=0;whiteSpace=wrap;html=1;fontSize=10;" parent="1" vertex="1">
          <mxGeometry x="280" y="60" width="120" height="60" as="geometry" />
        </mxCell>
        <mxCell id="1YtH2B_9oA-8Mvq2Wx-H-26" value="" style="endArrow=none;html=1;rounded=0;" parent="1" edge="1">
          <mxGeometry width="50" height="50" relative="1" as="geometry">
            <mxPoint x="339.4100000000001" y="710" as="sourcePoint" />
            <mxPoint x="339.4100000000001" y="120" as="targetPoint" />
          </mxGeometry>
        </mxCell>
        <mxCell id="1YtH2B_9oA-8Mvq2Wx-H-30" value="" style="endArrow=classic;html=1;rounded=0;entryX=0;entryY=0;entryDx=0;entryDy=0;" parent="1" target="1YtH2B_9oA-8Mvq2Wx-H-31" edge="1">
          <mxGeometry width="50" height="50" relative="1" as="geometry">
            <mxPoint x="140" y="269.23" as="sourcePoint" />
            <mxPoint x="330" y="269.23" as="targetPoint" />
          </mxGeometry>
        </mxCell>
        <mxCell id="1YtH2B_9oA-8Mvq2Wx-H-31" value="" style="rounded=0;whiteSpace=wrap;html=1;" parent="1" vertex="1">
          <mxGeometry x="330" y="269.23" width="10" height="60" as="geometry" />
        </mxCell>
        <mxCell id="1YtH2B_9oA-8Mvq2Wx-H-32" value="" style="endArrow=classic;html=1;rounded=0;exitX=0.25;exitY=1;exitDx=0;exitDy=0;dashed=1;" parent="1" source="1YtH2B_9oA-8Mvq2Wx-H-31" edge="1">
          <mxGeometry width="50" height="50" relative="1" as="geometry">
            <mxPoint x="200" y="429.23" as="sourcePoint" />
            <mxPoint x="140" y="329.23" as="targetPoint" />
          </mxGeometry>
        </mxCell>
        <mxCell id="1YtH2B_9oA-8Mvq2Wx-H-33" value="Поиск тренировки \ рецепта" style="text;html=1;strokeColor=none;fillColor=none;align=center;verticalAlign=middle;whiteSpace=wrap;rounded=0;fontSize=10;" parent="1" vertex="1">
          <mxGeometry x="170" y="240" width="130" height="30" as="geometry" />
        </mxCell>
        <mxCell id="1YtH2B_9oA-8Mvq2Wx-H-34" value="Рецепт \&lt;br&gt;Тренировка" style="rounded=0;whiteSpace=wrap;html=1;fontSize=10;" parent="1" vertex="1">
          <mxGeometry x="414" y="60" width="120" height="60" as="geometry" />
        </mxCell>
        <mxCell id="1YtH2B_9oA-8Mvq2Wx-H-35" value="" style="endArrow=classic;html=1;rounded=0;entryX=0;entryY=0;entryDx=0;entryDy=0;" parent="1" target="1YtH2B_9oA-8Mvq2Wx-H-36" edge="1">
          <mxGeometry width="50" height="50" relative="1" as="geometry">
            <mxPoint x="340" y="370" as="sourcePoint" />
            <mxPoint x="470" y="370" as="targetPoint" />
          </mxGeometry>
        </mxCell>
        <mxCell id="1YtH2B_9oA-8Mvq2Wx-H-36" value="" style="rounded=0;whiteSpace=wrap;html=1;" parent="1" vertex="1">
          <mxGeometry x="470" y="370" width="10" height="60" as="geometry" />
        </mxCell>
        <mxCell id="1YtH2B_9oA-8Mvq2Wx-H-37" value="" style="endArrow=classic;html=1;rounded=0;exitX=0.25;exitY=1;exitDx=0;exitDy=0;dashed=1;" parent="1" source="1YtH2B_9oA-8Mvq2Wx-H-36" edge="1">
          <mxGeometry width="50" height="50" relative="1" as="geometry">
            <mxPoint x="340" y="530" as="sourcePoint" />
            <mxPoint x="140" y="430" as="targetPoint" />
          </mxGeometry>
        </mxCell>
        <mxCell id="1YtH2B_9oA-8Mvq2Wx-H-38" value="" style="endArrow=none;html=1;rounded=0;" parent="1" edge="1">
          <mxGeometry width="50" height="50" relative="1" as="geometry">
            <mxPoint x="474.61999999999983" y="710" as="sourcePoint" />
            <mxPoint x="474.61999999999983" y="120" as="targetPoint" />
          </mxGeometry>
        </mxCell>
        <mxCell id="1YtH2B_9oA-8Mvq2Wx-H-39" value="выбор" style="text;html=1;strokeColor=none;fillColor=none;align=center;verticalAlign=middle;whiteSpace=wrap;rounded=0;fontSize=10;" parent="1" vertex="1">
          <mxGeometry x="350" y="340" width="60" height="30" as="geometry" />
        </mxCell>
        <mxCell id="1YtH2B_9oA-8Mvq2Wx-H-40" value="выход" style="rounded=0;whiteSpace=wrap;html=1;fontSize=10;" parent="1" vertex="1">
          <mxGeometry x="550" y="60" width="120" height="60" as="geometry" />
        </mxCell>
        <mxCell id="1YtH2B_9oA-8Mvq2Wx-H-41" value="" style="endArrow=none;html=1;rounded=0;" parent="1" edge="1">
          <mxGeometry width="50" height="50" relative="1" as="geometry">
            <mxPoint x="609.4099999999999" y="710" as="sourcePoint" />
            <mxPoint x="609.4099999999999" y="119.99999999999989" as="targetPoint" />
          </mxGeometry>
        </mxCell>
        <mxCell id="1YtH2B_9oA-8Mvq2Wx-H-42" value="" style="endArrow=classic;html=1;rounded=0;entryX=0;entryY=0;entryDx=0;entryDy=0;" parent="1" target="1YtH2B_9oA-8Mvq2Wx-H-43" edge="1">
          <mxGeometry width="50" height="50" relative="1" as="geometry">
            <mxPoint x="140" y="470" as="sourcePoint" />
            <mxPoint x="610" y="470" as="targetPoint" />
          </mxGeometry>
        </mxCell>
        <mxCell id="1YtH2B_9oA-8Mvq2Wx-H-43" value="" style="rounded=0;whiteSpace=wrap;html=1;" parent="1" vertex="1">
          <mxGeometry x="610" y="470" width="10" height="60" as="geometry" />
        </mxCell>
        <mxCell id="1YtH2B_9oA-8Mvq2Wx-H-44" value="" style="endArrow=classic;html=1;rounded=0;exitX=0.25;exitY=1;exitDx=0;exitDy=0;dashed=1;" parent="1" source="1YtH2B_9oA-8Mvq2Wx-H-43" edge="1">
          <mxGeometry width="50" height="50" relative="1" as="geometry">
            <mxPoint x="480" y="630" as="sourcePoint" />
            <mxPoint x="140" y="530" as="targetPoint" />
          </mxGeometry>
        </mxCell>
        <mxCell id="1YtH2B_9oA-8Mvq2Wx-H-45" value="выход из аккаунта" style="text;html=1;strokeColor=none;fillColor=none;align=center;verticalAlign=middle;whiteSpace=wrap;rounded=0;fontSize=10;" parent="1" vertex="1">
          <mxGeometry x="474" y="440" width="116" height="30" as="geometry" />
        </mxCell>
      </root>
    </mxGraphModel>
  </diagram>
</mxfile>
